<svg width="22" height="20" viewBox="0 0 22 20" fill="none" xmlns="http://www.w3.org/2000/svg">
<path d="M0 9.93327C0.84906 9.11425 1.69627 8.32441 2.51335 7.50447C4.81304 5.19698 7.10068 2.87792 9.39203 0.562093C9.85734 0.0917055 10.4075 -0.104598 11.0577 0.0542041C12.2428 0.344492 12.7327 1.81399 11.9193 2.72328C11.251 3.47007 10.521 4.16222 9.8161 4.87614C8.72604 5.98034 7.63366 7.08177 6.54221 8.18505C6.5107 8.217 6.48335 8.25265 6.41615 8.32997C6.54638 8.32997 6.63398 8.32997 6.72157 8.32997C13.534 8.32997 13.3464 8.33136 20.1588 8.32765C20.8248 8.32719 21.3758 8.53877 21.7378 9.11564C22.42 10.2027 21.6989 11.5949 20.4063 11.6542C19.5429 11.694 18.6766 11.6671 17.8114 11.6676C12.8602 11.668 14.9095 11.6681 9.95838 11.6681C8.86925 11.6681 7.78011 11.6681 6.69144 11.6681C6.61683 11.6681 6.54221 11.6681 6.40364 11.6681C6.64324 11.913 6.83836 12.1148 7.03626 12.3144C8.61666 13.9107 10.198 15.5062 11.7784 17.1025C12.2729 17.6021 12.4425 18.1956 12.221 18.8651C12.0143 19.4882 11.5596 19.8628 10.9126 19.9734C10.3871 20.0633 9.90601 19.9258 9.52319 19.5531C8.83773 18.8854 8.16896 18.2002 7.49555 17.5201C5.06701 15.0686 2.63941 12.6162 0.212265 10.1634C0.164065 10.1152 0.119573 10.0634 0 9.93327Z" fill="#4465F9"/>
</svg>
